<svg t="1611131062343" class="icon" viewBox="0 0 1024 1024" version="1.1" xmlns="http://www.w3.org/2000/svg" p-id="7663" width="32" height="32"><path d="M343.327761 526.512183H91.783256c-50.91994 0-91.655893 40.735952-91.655893 91.655893v251.544505c0 50.91994 40.735952 91.655893 91.655893 91.655892h251.544505c50.91994 0 91.655893-40.735952 91.655893-91.655892V618.168076c0-50.91994-40.735952-91.655893-91.655893-91.655893z m0 297.372452c0 25.45997-20.367976 45.827946-45.827946 45.827946H137.611202c-25.45997 0-45.827946-20.367976-45.827946-45.827946V663.996022c0-25.45997 20.367976-45.827946 45.827946-45.827946h159.888613c25.45997 0 45.827946 20.367976 45.827946 45.827946v159.888613zM1010.378979 945.074092l-78.416708-78.416708c-2.036798-2.036798-4.073595-3.055196-6.110393-5.091994 22.404774-33.607161 35.643958-74.343113 35.643959-118.134261 0-120.171059-97.766285-217.937345-217.937345-217.937345-120.171059 0-217.937345 97.766285-217.937345 217.937345S623.387433 961.368473 743.558492 961.368473c43.791149 0 84.527101-13.239184 118.134262-35.643958 1.018399 2.036798 3.055196 4.073595 5.091994 6.110393l78.416708 78.416708c18.331179 18.331179 46.846345 18.331179 65.177523 0 17.31278-18.331179 17.31278-46.846345 0-65.177524zM743.558492 869.712581c-69.251119 0-126.281452-56.011934-126.281452-126.281452S674.307373 618.168076 743.558492 618.168076c69.251119 0 126.281452 56.011934 126.281452 126.281452S813.82801 869.712581 743.558492 869.712581zM594.872266 434.85629h251.544505c50.91994 0 91.655893-40.735952 91.655893-91.655892V91.655893c0-50.91994-40.735952-91.655893-91.655893-91.655893H594.872266c-50.91994 0-91.655893 40.735952-91.655892 91.655893v251.544505c0 50.91994 41.754351 91.655893 91.655892 91.655892z m0-297.372451c0-25.45997 20.367976-45.827946 45.827947-45.827946h159.888612c25.45997 0 45.827946 20.367976 45.827946 45.827946v159.888613c0 25.45997-20.367976 45.827946-45.827946 45.827946H640.700213c-25.45997 0-45.827946-20.367976-45.827947-45.827946V137.483839zM343.327761 0H91.783256C40.863315 0 0.127363 40.735952 0.127363 91.655893v251.544505c0 50.91994 40.735952 91.655893 91.655893 91.655892h251.544505c50.91994 0 91.655893-40.735952 91.655893-91.655892V91.655893c0-50.91994-40.735952-91.655893-91.655893-91.655893z m0 297.372452c0 25.45997-20.367976 45.827946-45.827946 45.827946H137.611202c-25.45997 0-45.827946-20.367976-45.827946-45.827946V137.483839C91.783256 112.023869 112.151232 91.655893 137.611202 91.655893h159.888613c25.45997 0 45.827946 20.367976 45.827946 45.827946v159.888613z" fill="#e4728a" p-id="7664"></path></svg>
