<svg t="1611130835614" class="icon" viewBox="0 0 1136 1024" version="1.1" xmlns="http://www.w3.org/2000/svg" p-id="4237" width="32" height="32"><path d="M1122.348075 404.170276L642.212651 24.599452C621.564406 8.28479 596.964953 0 568.414294 0s-53.022654 8.157331-73.798357 24.599452L14.480512 404.170276A36.962908 36.962908 0 0 0 0.332641 429.534478a36.274633 36.274633 0 0 0 7.902414 27.913369 36.644262 36.644262 0 0 0 24.981828 14.147871 35.968733 35.968733 0 0 0 27.658451-7.902415l14.912622-12.235997v458.849888q0 46.840926 40.659198 80.298731c27.148618 22.305203 56.464028 33.394075 88.201145 33.394075h757.739607q44.546677 0 71.504107-31.227284t27.02116-82.338063V453.369181l13.765497 10.451581a36.962908 36.962908 0 0 0 23.707244 8.157331 36.134429 36.134429 0 0 0 29.825243-14.402788 36.720737 36.720737 0 0 0 8.029873-27.913368 35.968733 35.968733 0 0 0-13.892955-25.491661z m-591.788897 543.992034V738.111028q0-15.677371 37.855116-15.677371t37.855115 15.677371v210.051282z m454.643764-37.855116c0 25.236744-7.52004 37.855116-22.687578 37.855116h-279.643515a1.402041 1.402041 0 0 0-0.382375-0.76475 1.975604 1.975604 0 0 1-0.382375-0.764749V738.111028c0-24.471994-9.814289-45.75753-29.442868-64.111526s-47.669405-27.403535-84.249937-27.403535-64.621359 9.176998-84.249938 27.403535-29.442868 39.639532-29.442868 64.111526v208.521783a1.108887 1.108887 0 0 0 0.509833 0.764749c0.382375 0.382375 0.509833 0.637292 0.509833 0.76475h-251.092855c-11.98108 0-23.707244-4.206124-35.433408-12.490913s-17.589246-16.824496-17.589246-25.364203v-518.75529L541.138217 84.122479c7.010207-5.480707 15.804829-8.28479 26.638785-8.284789s19.628579 2.804083 26.638785 8.284789l390.914613 309.213842v516.970873z" fill="#2c2c2c" p-id="4238"></path></svg>
