<svg t="1611131111452" class="icon" viewBox="0 0 1024 1024" version="1.1" xmlns="http://www.w3.org/2000/svg" p-id="9678" width="32" height="32"><path d="M924.8 398.08a131.04 131.04 0 0 0-57.92-87.04L592 119.84a129.12 129.12 0 0 0-46.56-20.48 145.76 145.76 0 0 0-62.24 0A154.08 154.08 0 0 0 432 119.84l-275.52 192a135.36 135.36 0 0 0-56.96 81.28A141.12 141.12 0 0 0 96 425.44v361.92A140.48 140.48 0 0 0 236.32 928h553.76a136.8 136.8 0 0 0 26.88-2.72 141.6 141.6 0 0 0 72.96-39.68 135.68 135.68 0 0 0 34.88-64 124.16 124.16 0 0 0 3.04-33.6v-360a142.72 142.72 0 0 0-3.04-29.92z m-56 389.28a80 80 0 0 1-81.28 81.28H236.32a80 80 0 0 1-81.28-81.28V428A76.48 76.48 0 0 1 192 358.88L468 164.8A69.92 69.92 0 0 1 512 149.92a80 80 0 0 1 46.4 15.04L832 356.16a82.88 82.88 0 0 1 37.12 69.28z" p-id="9679" fill="#e4728a"></path><path d="M436.64 646.24H592A28.64 28.64 0 1 1 592 704h-155.36a28.8 28.8 0 0 1-28.64-28.48 26.08 26.08 0 0 1 28.64-28.64z" p-id="9680" fill="#e4728a"></path></svg>
