<svg t="1611131314238" class="icon" viewBox="0 0 1024 1024" version="1.1" xmlns="http://www.w3.org/2000/svg" p-id="17184" width="32" height="32"><path d="M256.109406 341.358052c0-141.251608 114.638986-255.890594 255.890594-255.890594s255.890594 114.638986 255.890594 255.890594-114.638986 255.890594-255.890594 255.890594c-141.251608-0.511781-255.890594-114.638986-255.890594-255.890594m723.6586 628.467299c-41.966057-157.116825-152.510794-279.94431-291.203496-337.263803 102.356238-61.413743 164.793543-171.958479 164.793542-291.715277C853.358052 153.022575 700.335477 0 512 0 323.664523 0 170.641948 153.022575 170.641948 341.358052c0 119.245017 62.437305 229.789753 164.793542 291.715277-138.692702 57.319493-249.237439 180.146978-291.203496 337.263803-6.141374 22.518372 7.676718 46.060307 30.19509 52.201682s46.060307-7.676718 52.201681-30.195091c48.619213-182.194103 207.271381-309.627619 385.371235-309.627618s336.752022 127.433516 385.371235 309.627618c6.141374 22.518372 29.171528 36.336464 52.201681 30.195091 22.518372-6.653155 36.336464-29.683309 30.19509-52.713463" p-id="17185" fill="#2c2c2c"></path></svg>
