<svg t="1611131271435" class="icon" viewBox="0 0 1024 1024" version="1.1" xmlns="http://www.w3.org/2000/svg" p-id="15657" width="32" height="32"><path d="M42.666667 149.482667A106.752 106.752 0 0 1 149.482667 42.666667h725.034666A106.752 106.752 0 0 1 981.333333 149.482667v725.034666A106.752 106.752 0 0 1 874.517333 981.333333H149.482667A106.752 106.752 0 0 1 42.666667 874.517333V149.482667z m853.333333 189.696c-6.933333 1.408-14.122667 2.154667-21.482667 2.154666H149.482667c-7.36 0-14.549333-0.746667-21.482667-2.154666v535.338666C128 886.421333 137.578667 896 149.482667 896h725.034666c11.904 0 21.482667-9.578667 21.482667-21.482667V339.2zM128 149.333333v85.333334c0 11.690667 9.642667 21.333333 21.482667 21.333333h725.034666c11.946667 0 21.482667-9.536 21.482667-21.333333V149.333333c0-11.690667-9.642667-21.333333-21.482667-21.333333H149.482667C137.536 128 128 137.536 128 149.333333z m149.333333 298.666667a42.666667 42.666667 0 1 1 85.333334 0 149.333333 149.333333 0 0 0 298.666666 0 42.666667 42.666667 0 1 1 85.333334 0c0 129.6-105.066667 234.666667-234.666667 234.666667s-234.666667-105.066667-234.666667-234.666667z" fill="#e4728a" p-id="15658"></path></svg>
