<?xml version="1.0" standalone="no"?><!DOCTYPE svg PUBLIC "-//W3C//DTD SVG 1.1//EN" "http://www.w3.org/Graphics/SVG/1.1/DTD/svg11.dtd"><svg t="1608362914237" class="icon" viewBox="0 0 1024 1024" version="1.1" xmlns="http://www.w3.org/2000/svg" p-id="2433" xmlns:xlink="http://www.w3.org/1999/xlink" width="200" height="200"><defs><style type="text/css"></style></defs><path d="M42.666667 149.482667A106.752 106.752 0 0 1 149.482667 42.666667h725.034666A106.752 106.752 0 0 1 981.333333 149.482667v725.034666A106.752 106.752 0 0 1 874.517333 981.333333H149.482667A106.752 106.752 0 0 1 42.666667 874.517333V149.482667z m85.333333 0v725.034666C128 886.421333 137.578667 896 149.482667 896h725.034666c11.904 0 21.482667-9.578667 21.482667-21.482667V149.482667C896 137.578667 886.421333 128 874.517333 128H149.482667C137.578667 128 128 137.578667 128 149.482667zM661.333333 213.333333a42.666667 42.666667 0 1 1 85.333334 0v106.666667c0 129.536-105.088 234.666667-234.666667 234.666667-129.536 0-234.666667-105.216-234.666667-234.666667v-106.666667a42.666667 42.666667 0 1 1 85.333334 0v106.666667c0 82.346667 66.944 149.333333 149.333333 149.333333 82.453333 0 149.333333-66.922667 149.333333-149.333333v-106.666667z" fill="#000000" p-id="2434"></path></svg>